<svg width="140" height="25" viewBox="0 0 140 25" fill="none" xmlns="http://www.w3.org/2000/svg">
<path d="M1.74 5.8H3.88L8.84 12.52L13.82 5.8H15.96V20H13.6V9.82L8.86 16.26L4.08 9.8V20H1.74V5.8ZM23.4 20.2C21.9067 20.2 20.68 19.7133 19.72 18.74C18.76 17.7533 18.28 16.5067 18.28 15C18.28 13.4933 18.7533 12.2533 19.7 11.28C20.6467 10.2933 21.8867 9.8 23.42 9.8C24.9667 9.8 26.2133 10.34 27.16 11.42C28.1067 12.4867 28.5267 13.86 28.42 15.54H20.46C20.4867 16.3133 20.78 16.96 21.34 17.48C21.9 18 22.6133 18.26 23.48 18.26C24.7067 18.26 25.5467 17.7933 26 16.86H28.3C27.9933 17.8333 27.4067 18.6333 26.54 19.26C25.6733 19.8867 24.6267 20.2 23.4 20.2ZM23.36 11.64C22.64 11.64 22.02 11.8467 21.5 12.26C20.9933 12.66 20.6667 13.2333 20.52 13.98H26.06C25.9 13.2067 25.5733 12.6267 25.08 12.24C24.5867 11.84 24.0133 11.64 23.36 11.64ZM34.8434 20.1C33.8301 20.1 33.0034 19.82 32.3634 19.26C31.7368 18.6867 31.4234 17.86 31.4234 16.78V11.96H29.3434V10H31.4234V7.22H33.6234V10H36.4834V11.96H33.6234V16.42C33.6234 17.0333 33.7568 17.4733 34.0234 17.74C34.2901 17.9933 34.7168 18.12 35.3034 18.12C35.7834 18.12 36.1768 18.0533 36.4834 17.92V19.88C36.0034 20.0267 35.4568 20.1 34.8434 20.1ZM42.5331 20.2C41.1731 20.2 40.0265 19.6933 39.0931 18.68C38.1731 17.6667 37.7131 16.44 37.7131 15C37.7131 13.56 38.1731 12.3333 39.0931 11.32C40.0265 10.3067 41.1731 9.8 42.5331 9.8C43.2131 9.8 43.8398 9.95333 44.4131 10.26C44.9865 10.5533 45.4265 10.9133 45.7331 11.34V10H47.9331V20H45.7331V18.66C45.4265 19.0867 44.9865 19.4533 44.4131 19.76C43.8398 20.0533 43.2131 20.2 42.5331 20.2ZM40.7931 17.28C41.3531 17.8933 42.0665 18.2 42.9331 18.2C43.7998 18.2 44.5131 17.8933 45.0731 17.28C45.6331 16.6667 45.9131 15.9067 45.9131 15C45.9131 14.0933 45.6331 13.3333 45.0731 12.72C44.5131 12.1067 43.7998 11.8 42.9331 11.8C42.0665 11.8 41.3531 12.1067 40.7931 12.72C40.2331 13.3333 39.9531 14.0933 39.9531 15C39.9531 15.9067 40.2331 16.6667 40.7931 17.28Z" fill="white"/>
<path d="M96.998 7.87734C96.9661 7.28593 96.5479 6.89445 96.0639 7.003L92.5275 7.79608C92.1617 7.87812 91.8634 8.22261 91.7533 8.64129C90.1997 6.4462 87.463 2.892 85.5168 2.09326C85.2474 1.98462 83.5704 1.44273 77 1.44273C70.4296 1.44273 68.7527 1.98462 68.4775 2.09561C66.5354 2.89261 63.7999 6.4462 62.2467 8.64121C62.1365 8.22252 61.8383 7.87812 61.4725 7.79608L57.9361 7.003C57.4522 6.89445 57.034 7.28593 57.002 7.87734C56.9698 8.46883 57.3362 9.03626 57.8199 9.14481L60.957 9.84835C59.8634 10.6481 59.1551 11.9267 59.1551 13.3676L59.6023 20.9409C59.6023 22.386 60.7966 23.5574 62.2699 23.5574H63.8741C65.3473 23.5574 66.5415 22.386 66.5415 20.9409L66.4892 20.3865H87.5107L87.4583 20.9409C87.4583 22.386 88.6525 23.5574 90.1258 23.5574H91.7299C93.2032 23.5574 94.3975 22.386 94.3975 20.9409L94.8447 13.3676C94.8447 11.9267 94.1364 10.6482 93.0428 9.84835L96.1799 9.14481C96.6638 9.03626 97.0302 8.46883 96.998 7.87734ZM69.2151 3.88553C69.3693 3.83635 70.9848 3.37311 77.0001 3.37311C83.0032 3.37311 84.6243 3.83452 84.7841 3.88527C85.9483 4.38138 87.9457 6.74753 89.587 8.98046H64.4129C66.0562 6.74474 68.0557 4.37588 69.2151 3.88553ZM80.757 19.1059H73.2431C72.8972 19.1059 72.6169 18.8309 72.6169 18.4917C72.6169 18.1525 72.8972 17.8776 73.2431 17.8776H80.757C81.1029 17.8776 81.3832 18.1526 81.3832 18.4917C81.3832 18.8309 81.1029 19.1059 80.757 19.1059ZM86.8755 15.8302C86.8755 15.8302 85.6232 15.1225 84.1026 14.9499H69.1283C67.6076 15.1225 66.3553 15.8302 66.3553 15.8302C62.8667 16.7077 61.9185 13.8999 61.9185 13.8999H91.3124C91.3123 13.8999 90.3642 16.7076 86.8755 15.8302Z" fill="white"/>
<path d="M112.24 20.24C110.12 20.24 108.353 19.54 106.94 18.14C105.54 16.7267 104.84 14.98 104.84 12.9C104.84 10.82 105.54 9.08 106.94 7.68C108.353 6.26667 110.12 5.56 112.24 5.56C113.92 5.56 115.387 6.04 116.64 7C117.907 7.94667 118.72 9.13333 119.08 10.56H116.56C116.253 9.74667 115.707 9.08667 114.92 8.58C114.133 8.07333 113.24 7.82 112.24 7.82C110.773 7.82 109.567 8.30667 108.62 9.28C107.673 10.2533 107.2 11.46 107.2 12.9C107.2 14.34 107.673 15.5467 108.62 16.52C109.567 17.4933 110.773 17.98 112.24 17.98C113.24 17.98 114.133 17.7267 114.92 17.22C115.707 16.7133 116.253 16.0533 116.56 15.24H119.08C118.72 16.6667 117.907 17.86 116.64 18.82C115.387 19.7667 113.92 20.24 112.24 20.24ZM125.283 20.2C123.923 20.2 122.776 19.6933 121.843 18.68C120.923 17.6667 120.463 16.44 120.463 15C120.463 13.56 120.923 12.3333 121.843 11.32C122.776 10.3067 123.923 9.8 125.283 9.8C125.963 9.8 126.59 9.95333 127.163 10.26C127.736 10.5533 128.176 10.9133 128.483 11.34V10H130.683V20H128.483V18.66C128.176 19.0867 127.736 19.4533 127.163 19.76C126.59 20.0533 125.963 20.2 125.283 20.2ZM123.543 17.28C124.103 17.8933 124.816 18.2 125.683 18.2C126.55 18.2 127.263 17.8933 127.823 17.28C128.383 16.6667 128.663 15.9067 128.663 15C128.663 14.0933 128.383 13.3333 127.823 12.72C127.263 12.1067 126.55 11.8 125.683 11.8C124.816 11.8 124.103 12.1067 123.543 12.72C122.983 13.3333 122.703 14.0933 122.703 15C122.703 15.9067 122.983 16.6667 123.543 17.28ZM133.664 20V10H135.864V11.78C136.05 11.22 136.39 10.7667 136.884 10.42C137.39 10.0733 137.93 9.9 138.504 9.9C138.85 9.9 139.137 9.92667 139.364 9.98V12.24C139.044 12.12 138.677 12.06 138.264 12.06C137.597 12.06 137.03 12.3333 136.564 12.88C136.097 13.4133 135.864 14.16 135.864 15.12V20H133.664Z" fill="white"/>
</svg>
